<?xml version="1.0" encoding="UTF-8" standalone="yes"?>
<svg xmlns="http://www.w3.org/2000/svg" width="100%" height="100%" viewBox="0 0 106.31884765625 17.474609375" fill="#0D1A10">
  <path d="M5.06 17.25L0 17.25L0 0.90L5.03 0.90Q7.19 0.90 8.89 1.87Q10.59 2.84 11.54 4.63Q12.50 6.42 12.50 8.70L12.50 8.70L12.50 9.46Q12.50 11.74 11.56 13.51Q10.62 15.28 8.92 16.26Q7.21 17.24 5.06 17.25L5.06 17.25ZM5.03 3.63L3.37 3.63L3.37 14.54L5.00 14.54Q6.97 14.54 8.02 13.25Q9.06 11.96 9.09 9.56L9.09 9.56L9.09 8.69Q9.09 6.20 8.05 4.91Q7.02 3.63 5.03 3.63L5.03 3.63ZM24.07 17.25L21.00 11.26L18.32 11.26L18.32 17.25L14.95 17.25L14.95 0.90L21.02 0.90Q23.92 0.90 25.49 2.19Q27.07 3.48 27.07 5.84L27.07 5.84Q27.07 7.51 26.34 8.63Q25.62 9.75 24.15 10.41L24.15 10.41L27.68 17.09L27.68 17.25L24.07 17.25ZM18.32 3.63L18.32 8.54L21.03 8.54Q22.30 8.54 23 7.89Q23.70 7.24 23.70 6.11L23.70 6.11Q23.70 4.95 23.04 4.29Q22.38 3.63 21.02 3.63L21.02 3.63L18.32 3.63ZM39.46 7.52L39.46 10.16L33.00 10.16L33.00 14.54L40.59 14.54L40.59 17.25L29.63 17.25L29.63 0.90L40.56 0.90L40.56 3.63L33.00 3.63L33.00 7.52L39.46 7.52ZM55.86 0.90L55.86 17.25L52.49 17.25L45.93 6.49L45.93 17.25L42.56 17.25L42.56 0.90L45.93 0.90L52.50 11.68L52.50 0.90L55.86 0.90ZM68.27 11.80L71.64 11.80Q71.45 14.44 69.69 15.96Q67.93 17.47 65.06 17.47L65.06 17.47Q61.91 17.47 60.11 15.36Q58.31 13.24 58.31 9.55L58.31 9.55L58.31 8.55Q58.31 6.19 59.14 4.39Q59.97 2.59 61.51 1.63Q63.06 0.67 65.10 0.67L65.10 0.67Q67.93 0.67 69.66 2.19Q71.39 3.71 71.66 6.45L71.66 6.45L68.29 6.45Q68.17 4.86 67.41 4.15Q66.65 3.44 65.10 3.44L65.10 3.44Q63.42 3.44 62.58 4.64Q61.75 5.85 61.72 8.39L61.72 8.39L61.72 9.62Q61.72 12.27 62.53 13.50Q63.33 14.72 65.06 14.72L65.06 14.72Q66.62 14.72 67.39 14.01Q68.16 13.30 68.27 11.80L68.27 11.80ZM87.16 0.90L87.16 17.25L83.79 17.25L83.79 10.24L77.22 10.24L77.22 17.25L73.85 17.25L73.85 0.90L77.22 0.90L77.22 7.52L83.79 7.52L83.79 0.90L87.16 0.90ZM91.73 0L91.73 1.65L91.40 6.19L89.35 6.19L89.35 0L91.73 0ZM98.88 17.25L93.82 17.25L93.82 0.90L98.85 0.90Q101.01 0.90 102.71 1.87Q104.41 2.84 105.36 4.63Q106.32 6.42 106.32 8.70L106.32 8.70L106.32 9.46Q106.32 11.74 105.38 13.51Q104.44 15.28 102.74 16.26Q101.03 17.24 98.88 17.25L98.88 17.25ZM98.85 3.63L97.19 3.63L97.19 14.54L98.82 14.54Q100.79 14.54 101.84 13.25Q102.88 11.96 102.90 9.56L102.90 9.56L102.90 8.69Q102.90 6.20 101.87 4.91Q100.84 3.63 98.85 3.63L98.85 3.63Z" preserveAspectRatio="none"/>
</svg>